<?xml version="1.0" encoding="utf-8"?>
<!-- Generator: Adobe Illustrator 26.2.1, SVG Export Plug-In . SVG Version: 6.00 Build 0)  -->
<svg version="1.1" id="Livello_1" xmlns="http://www.w3.org/2000/svg" xmlns:xlink="http://www.w3.org/1999/xlink" x="0px" y="0px"
	 viewBox="0 0 582.7 94.8" style="enable-background:new 0 0 582.7 94.8;" xml:space="preserve">
<style type="text/css">
	.st0{display:none;}
	.st1{display:inline;}
	.st2{fill:#7AB41D;}
	.st3{fill:#1F1F20;}
	.st4{display:inline;fill:#1F1F20;}
	.st5{font-family:'MyriadPro-Semibold';}
	.st6{font-size:18.6737px;}
	.st7{display:inline;fill:#009DDF;}
	.st8{display:inline;fill:#6F7072;}
	.st9{fill:#009DDF;}
	.st10{font-size:17.5406px;}
	.st11{display:inline;fill:#9D3186;}
	.st12{fill:#4D4D4D;}
	.st13{display:inline;fill:#4D4D4D;}
	.st14{fill:#9D3186;}
	.st15{font-size:19.3453px;}
	.st16{fill:#EB711C;}
</style>
<g id="Assistenza" class="st0">
	<g class="st1">
		<g>
			<path class="st2" d="M268.5,20.2c-4.1-4.7-9.1-7-15.1-7c-1.6,0-3.1,0.2-4.6,0.6c7.6,7.7,12.4,18.2,12.4,29.9
				c0,6.7-1.7,13.1-4.5,18.7c4.4-0.8,8.3-3.1,11.6-7c4.2-4.9,6.3-10.8,6.3-17.8C274.6,30.7,272.6,24.9,268.5,20.2z"/>
			<g>
				<path class="st3" d="M249,50.6c-3.1-0.8-5.4-3.2-6.2-6.3c-0.2-0.9-0.3-1.8-0.3-2.9v-6.1c0-0.8,0.1-1.7,0.3-2.5
					c0.3-1.3,0.8-2.4,1.5-3.4c-1-2.5-2.1-4.9-3.3-7.3l0,0v-0.2c-1.1-2.1-2.2-4.1-3.5-6h-9.2c0.2,4.2,0.4,9.1,0.4,15v47.9h13.9V56.5
					h0.2c1.2,1.8,3.3,3.3,5.9,4.2C249,57.4,249.1,54,249,50.6z"/>
			</g>
		</g>
		<g>
			<path class="st2" d="M280.4,30.5c0-6.6-0.1-10.9-0.4-14.7h12l0.6,8.3h0.4c2.3-6.6,7.7-9.3,12.1-9.3c1.3,0,1.9,0.1,2.9,0.3v13.1
				c-1.2-0.2-2.3-0.4-3.8-0.4c-5.1,0-8.6,2.6-9.5,7c-0.2,0.9-0.3,1.9-0.3,3.1v22.6h-13.9L280.4,30.5z"/>
			<path class="st2" d="M332.3,61.5c-13.1,0-23.1-8.6-23.1-23s9.5-23.7,23.9-23.7c13.6,0,22.8,9.4,22.8,22.9
				C355.9,54,344.2,61.5,332.3,61.5L332.3,61.5z M332.5,51.6c5.5,0,8.9-5.4,8.9-13.4c0-6.6-2.6-13.3-8.9-13.3
				c-6.6,0-9.1,6.8-9.1,13.4C323.4,45.8,326.6,51.6,332.5,51.6L332.5,51.6z"/>
			<path class="st2" d="M404.3,54c0,8.6-1.7,15.6-6.9,20.1c-4.8,4.2-11.5,5.5-18.1,5.5c-5.9,0-12.1-1.2-16.1-3.4l2.7-10.6
				c2.8,1.6,7.7,3.4,13,3.4c6.6,0,11.6-3.5,11.6-11.8v-2.8h-0.2c-2.6,3.7-6.9,5.8-12.1,5.8c-11.1,0-18.9-9-18.9-21.8
				c0-14.4,9.2-23.6,20.3-23.6c6.1,0,10,2.7,12.2,6.3h0.2l0.5-5.3h12.1c-0.2,2.9-0.4,6.7-0.4,13.3L404.3,54L404.3,54z M390.4,34
				c0-0.8-0.1-1.7-0.3-2.6c-1-3.7-3.7-6.1-7.5-6.1c-5.1,0-9.1,4.6-9.1,12.7c0,6.7,3.3,11.9,9,11.9c3.7,0,6.5-2.4,7.4-5.6
				c0.4-1.1,0.5-2.6,0.5-3.7V34z"/>
			<path class="st2" d="M412.8,30.5c0-6.6-0.1-10.9-0.4-14.7h11.9l0.5,8.3h0.4c2.3-6.6,7.7-9.3,12.1-9.3c1.3,0,1.9,0.1,2.9,0.3v13.1
				c-1.2-0.2-2.3-0.4-3.8-0.4c-5.1,0-8.6,2.6-9.5,7c-0.2,0.9-0.3,1.9-0.3,3.1v22.6h-13.9L412.8,30.5z"/>
			<path class="st2" d="M454.7,42.5c0.5,5.8,6.1,8.6,12.6,8.6c4.7,0,8.6-0.6,12.3-1.9l1.8,9.4c-4.6,1.9-10.1,2.8-16.2,2.8
				c-15.2,0-23.9-8.8-23.9-22.8c0-11.3,7.1-23.9,22.6-23.9C478.5,14.7,484,26,484,37c0,2.4-0.3,4.5-0.5,5.6L454.7,42.5z M471.1,33
				c0-3.3-1.5-9-7.8-9c-5.9,0-8.3,5.4-8.7,9H471.1z"/>
			<path class="st2" d="M489.5,48.5c2.6,1.6,7.9,3.3,12,3.3c4.2,0,5.9-1.4,5.9-3.7c0-2.4-1.4-3.5-6.5-5.2c-9.3-3-12.9-8.1-12.8-13.3
				c0-8.4,7.1-14.7,18.2-14.7c5.2,0,9.8,1.3,12.5,2.7l-2.4,9.5c-2-1-5.9-2.5-9.7-2.5c-3.4,0-5.3,1.4-5.3,3.6s1.7,3.3,7.2,5.2
				c8.5,2.8,12,7.2,12.1,13.7c0,8.4-6.5,14.5-19.3,14.5c-5.9,0-11.1-1.4-14.4-3.2L489.5,48.5z"/>
			<path class="st2" d="M526.4,48.5c2.6,1.6,7.9,3.3,12,3.3c4.2,0,5.9-1.4,5.9-3.7c0-2.4-1.4-3.5-6.5-5.2c-9.3-3-12.9-8.1-12.8-13.3
				c0-8.4,7.1-14.7,18.2-14.7c5.2,0,9.8,1.3,12.5,2.7l-2.4,9.5c-2-1-5.9-2.5-9.7-2.5c-3.4,0-5.3,1.4-5.3,3.6s1.7,3.3,7.2,5.2
				c8.5,2.8,12,7.2,12.1,13.7c0,8.4-6.5,14.5-19.3,14.5c-5.8,0-11.1-1.4-14.4-3.2L526.4,48.5z"/>
			<path class="st3" d="M28.8,3.2v12.2h10v10.2h-10v16.3c0,5.4,1.4,7.9,5.5,7.9c1.9,0,2.8-0.1,4.1-0.4l0.1,10.5
				c-1.7,0.6-5.1,1.2-9,1.2c-4.5,0-8.2-1.6-10.5-3.8c-2.6-2.7-3.8-6.9-3.8-13.3V25.6H9.3V15.4h5.9V7L28.8,3.2z"/>
			<path class="st3" d="M54.3,42.1c0.5,5.9,6.1,8.6,12.6,8.6c4.8,0,8.6-0.6,12.3-1.9l1.8,9.4C76.5,60.1,71,61,64.9,61
				C49.7,61,41,52.2,41,38.1c0-11.3,7.1-23.9,22.6-23.9c14.4,0,19.9,11.2,19.9,22.3c0,2.4-0.3,4.5-0.5,5.6H54.3z M70.7,32.6
				c0-3.3-1.5-9-7.8-9c-5.9,0-8.3,5.4-8.7,9H70.7z"/>
			<path class="st3" d="M122.7,59c-2.5,1.2-7.1,2.1-12.4,2.1c-14.4,0-23.7-8.9-23.7-22.9c0-13.1,9-23.8,25.6-23.8
				c3.7,0,7.7,0.6,10.6,1.7l-2.2,10.3c-1.6-0.7-4.1-1.4-7.8-1.4c-7.3,0-12.1,5.2-12,12.5c0,8.2,5.5,12.6,12.2,12.6
				c3.3,0,5.9-0.5,8-1.5L122.7,59z"/>
			<path class="st3" d="M127.6,29.7c0-5.6-0.2-10.2-0.4-14.3h12.1l0.6,6.2h0.3c1.8-2.9,6.3-7.2,13.8-7.2c9.1,0,16,6.1,16,19.3v26.4
				h-13.9V35.3c0-5.8-2-9.7-7-9.7c-3.8,0-6.1,2.7-7.1,5.2c-0.4,0.9-0.5,2.2-0.5,3.5v25.8h-13.9L127.6,29.7L127.6,29.7z"/>
			<path class="st3" d="M199,61.1c-13.1,0-23.1-8.6-23.1-23s9.5-23.7,23.9-23.7c13.6,0,22.8,9.4,22.8,22.9
				C222.6,53.6,211,61.1,199,61.1L199,61.1z M199.3,51.1c5.5,0,8.9-5.4,8.9-13.4c0-6.6-2.6-13.3-8.9-13.3c-6.6,0-9.1,6.8-9.1,13.4
				C190.2,45.4,193.4,51.1,199.3,51.1L199.3,51.1z"/>
		</g>
	</g>
	<text transform="matrix(1 0 0 1 14.2598 89.6914)" class="st4 st5 st6">NETWORK &amp; ASSISTENZA</text>
	<g class="st1">
		<path class="st2" d="M573,23.9c0,3.7-2.9,6.6-6.6,6.6c-3.7,0-6.7-2.9-6.7-6.6c0-3.6,3-6.5,6.7-6.5C570.1,17.4,573,20.3,573,23.9z
			 M561.3,23.9c0,2.9,2.1,5.2,5.1,5.2c2.8,0,4.9-2.3,4.9-5.1c0-2.9-2.1-5.2-5-5.2C563.5,18.7,561.3,21,561.3,23.9z M565.3,27.3h-1.5
			v-6.5c0.6-0.1,1.4-0.2,2.5-0.2c1.2,0,1.8,0.2,2.3,0.5c0.4,0.3,0.6,0.8,0.6,1.4c0,0.7-0.6,1.3-1.3,1.5v0.1c0.6,0.2,1,0.7,1.2,1.6
			c0.2,1,0.3,1.4,0.5,1.6H568c-0.2-0.2-0.3-0.8-0.5-1.6c-0.1-0.7-0.5-1-1.3-1h-0.7v2.6H565.3z M565.4,23.6h0.7
			c0.8,0,1.5-0.3,1.5-0.9s-0.4-1-1.4-1c-0.4,0-0.7,0-0.8,0.1V23.6z"/>
	</g>
</g>
<g id="Div_Informatica" class="st0">
	<path class="st7" d="M268.5,20.2c-4.1-4.7-9.1-7-15.1-7c-1.6,0-3.1,0.2-4.5,0.6c7.6,7.7,12.4,18.2,12.4,29.9
		c0,6.7-1.7,13.1-4.5,18.7c4.4-0.8,8.3-3.1,11.6-7c4.2-4.9,6.3-10.8,6.3-17.8C274.6,30.7,272.6,24.9,268.5,20.2z"/>
	<path class="st8" d="M249,50.6c-3.1-0.8-5.4-3.2-6.2-6.3c-0.2-0.9-0.3-1.8-0.3-2.9v-6.1c0-0.8,0.1-1.7,0.3-2.5
		c0.3-1.3,0.8-2.4,1.5-3.4c-1-2.5-2.1-4.9-3.3-7.3l0,0v-0.2c-1.1-2.1-2.3-4.1-3.5-6h-9.2c0.2,4.2,0.4,9.2,0.4,15v47.9h13.9V56.5h0.2
		c1.2,1.8,3.3,3.3,5.9,4.2C249,57.4,249.1,54,249,50.6z"/>
	<path class="st8" d="M28.8,3.7v12.2h10v10.2h-10v16.3c0,5.4,1.4,7.9,5.5,7.9c1.9,0,2.8-0.1,4.1-0.4l0.1,10.5
		c-1.7,0.6-5.1,1.2-9,1.2c-4.5,0-8.2-1.6-10.5-3.8c-2.6-2.7-3.8-6.9-3.8-13.3V26.1H9.3V15.8h5.9V7.4L28.8,3.7z"/>
	<path class="st8" d="M54.3,42.5c0.5,5.9,6.1,8.6,12.6,8.6c4.8,0,8.6-0.6,12.3-1.9l1.8,9.4c-4.6,1.9-10.1,2.8-16.2,2.8
		c-15.2,0-23.9-8.8-23.9-22.9c0-11.3,7.1-23.9,22.6-23.9C78.1,14.7,83.6,26,83.6,37c0,2.4-0.3,4.5-0.5,5.6L54.3,42.5z M70.7,33
		c0-3.3-1.5-9-7.8-9c-5.9,0-8.3,5.4-8.7,9H70.7z"/>
	<path class="st8" d="M122.7,59.4c-2.5,1.2-7.1,2.1-12.4,2.1c-14.4,0-23.7-8.9-23.7-22.9c0-13.1,9-23.8,25.6-23.8
		c3.7,0,7.7,0.6,10.6,1.7l-2.2,10.3c-1.6-0.7-4.1-1.4-7.8-1.4c-7.3,0-12.1,5.2-12,12.5c0,8.2,5.5,12.6,12.2,12.6
		c3.3,0,5.9-0.6,8-1.5L122.7,59.4z"/>
	<path class="st8" d="M127.6,30.1c0-5.6-0.2-10.2-0.4-14.3h12.1L140,22h0.3c1.8-2.9,6.3-7.2,13.8-7.2c9.1,0,16,6.1,16,19.3v26.4
		h-13.9V35.8c0-5.8-2-9.7-7-9.7c-3.8,0-6.1,2.7-7.1,5.2c-0.4,0.9-0.5,2.2-0.5,3.5v25.8h-13.9V30.1H127.6z"/>
	<path class="st8" d="M199,61.5c-13.1,0-23.1-8.6-23.1-23s9.5-23.7,23.9-23.7c13.6,0,22.8,9.4,22.8,22.9C222.6,54,211,61.5,199,61.5
		L199,61.5z M199.3,51.6c5.5,0,8.9-5.4,8.9-13.4c0-6.6-2.6-13.3-8.9-13.3c-6.6,0-9.1,6.8-9.1,13.4C190.2,45.8,193.4,51.6,199.3,51.6
		L199.3,51.6z"/>
	<path class="st7" d="M280.4,30.5c0-6.6-0.1-10.9-0.4-14.7h12l0.5,8.3h0.4c2.3-6.6,7.7-9.3,12.1-9.3c1.3,0,1.9,0.1,2.9,0.3v13.1
		c-1.2-0.2-2.3-0.4-3.8-0.4c-5.1,0-8.6,2.6-9.5,7c-0.2,0.9-0.3,1.9-0.3,3.1v22.6h-13.9L280.4,30.5z"/>
	<path class="st7" d="M332.3,61.5c-13.1,0-23.1-8.6-23.1-23s9.5-23.7,23.9-23.7c13.6,0,22.8,9.4,22.8,22.9
		C355.9,54,344.2,61.5,332.3,61.5L332.3,61.5z M332.5,51.6c5.5,0,8.9-5.4,8.9-13.4c0-6.6-2.6-13.3-8.9-13.3c-6.6,0-9.1,6.8-9.1,13.4
		C323.4,45.8,326.6,51.6,332.5,51.6L332.5,51.6z"/>
	<path class="st7" d="M404.3,54c0,8.6-1.7,15.6-6.9,20.1c-4.8,4.2-11.5,5.5-18.1,5.5c-5.9,0-12.1-1.2-16.1-3.4l2.7-10.6
		c2.8,1.6,7.7,3.4,13,3.4c6.6,0,11.6-3.5,11.6-11.8v-2.8h-0.2c-2.6,3.7-6.9,5.8-12.1,5.8c-11.1,0-18.9-9-18.9-21.8
		c0-14.4,9.2-23.6,20.3-23.6c6.1,0,10,2.7,12.2,6.3h0.2l0.5-5.3h12.1c-0.2,2.9-0.4,6.7-0.4,13.3L404.3,54L404.3,54z M390.4,34
		c0-0.8-0.1-1.7-0.3-2.6c-1-3.7-3.7-6.1-7.5-6.1c-5.1,0-9.1,4.6-9.1,12.7c0,6.7,3.3,11.9,9,11.9c3.7,0,6.5-2.4,7.4-5.6
		c0.4-1.1,0.5-2.6,0.5-3.7V34z"/>
	<path class="st7" d="M412.8,30.5c0-6.6-0.1-10.9-0.4-14.7h11.9l0.5,8.3h0.4c2.3-6.6,7.7-9.3,12.1-9.3c1.3,0,1.9,0.1,2.9,0.3v13.1
		c-1.2-0.2-2.3-0.4-3.8-0.4c-5.1,0-8.6,2.6-9.5,7c-0.2,0.9-0.3,1.9-0.3,3.1v22.6h-13.9L412.8,30.5z"/>
	<path class="st7" d="M454.7,42.5c0.5,5.9,6.1,8.6,12.6,8.6c4.8,0,8.6-0.6,12.3-1.9l1.8,9.4c-4.6,1.9-10.1,2.8-16.2,2.8
		c-15.2,0-23.9-8.8-23.9-22.9c0-11.3,7.1-23.9,22.6-23.9C478.5,14.7,484,26,484,37c0,2.4-0.3,4.5-0.5,5.6L454.7,42.5z M471.1,33
		c0-3.3-1.5-9-7.8-9c-5.9,0-8.3,5.4-8.7,9H471.1z"/>
	<path class="st7" d="M489.5,48.5c2.6,1.6,7.9,3.3,12,3.3c4.2,0,5.9-1.4,5.9-3.7c0-2.4-1.4-3.5-6.5-5.2c-9.3-3-12.9-8.1-12.8-13.3
		c0-8.4,7.1-14.7,18.2-14.7c5.2,0,9.8,1.3,12.5,2.7l-2.4,9.5c-2-1-5.9-2.5-9.7-2.5c-3.4,0-5.3,1.4-5.3,3.6s1.7,3.3,7.2,5.2
		c8.5,2.8,12,7.2,12.1,13.7c0,8.4-6.5,14.5-19.3,14.5c-5.9,0-11.1-1.4-14.4-3.2L489.5,48.5z"/>
	<path class="st7" d="M526.4,48.5c2.6,1.6,7.9,3.3,12,3.3c4.2,0,5.9-1.4,5.9-3.7c0-2.4-1.4-3.5-6.5-5.2c-9.3-3-12.9-8.1-12.8-13.3
		c0-8.4,7.1-14.7,18.2-14.7c5.2,0,9.8,1.3,12.5,2.7l-2.4,9.5c-2-1-5.9-2.5-9.7-2.5c-3.4,0-5.3,1.4-5.3,3.6s1.7,3.3,7.2,5.2
		c8.5,2.8,12,7.2,12.1,13.7c0,8.4-6.5,14.5-19.3,14.5c-5.8,0-11.1-1.4-14.4-3.2L526.4,48.5z"/>
	<g class="st1">
		<path class="st9" d="M573,23.9c0,3.7-2.9,6.6-6.6,6.6c-3.7,0-6.7-2.9-6.7-6.6c0-3.6,3-6.5,6.7-6.5C570.1,17.4,573,20.3,573,23.9z
			 M561.3,23.9c0,2.9,2.1,5.2,5.1,5.2c2.8,0,4.9-2.3,4.9-5.1c0-2.9-2.1-5.2-5-5.2C563.5,18.7,561.3,21,561.3,23.9z M565.3,27.3h-1.5
			v-6.5c0.6-0.1,1.4-0.2,2.5-0.2c1.2,0,1.8,0.2,2.3,0.5c0.4,0.3,0.6,0.8,0.6,1.4c0,0.7-0.6,1.3-1.3,1.5v0.1c0.6,0.2,1,0.7,1.2,1.6
			c0.2,1,0.3,1.4,0.5,1.6H568c-0.2-0.2-0.3-0.8-0.5-1.6c-0.1-0.7-0.5-1-1.3-1h-0.7v2.6H565.3z M565.4,23.6h0.7
			c0.8,0,1.5-0.3,1.5-0.9s-0.4-1-1.4-1c-0.4,0-0.7,0-0.8,0.1V23.6z"/>
	</g>
	<text transform="matrix(1 0 0 1 7.8832 88.0029)" class="st8 st5 st10">DIVISIONE WEB E IDEE</text>
</g>
<g id="Div_Informatica_Chiaro" class="st0">
	<path class="st7" d="M268.5,20.2c-4.1-4.7-9.1-7-15.1-7c-1.6,0-3.1,0.2-4.5,0.6c7.6,7.7,12.4,18.2,12.4,29.9
		c0,6.7-1.7,13.1-4.5,18.7c4.4-0.8,8.3-3.1,11.6-7c4.2-4.9,6.3-10.8,6.3-17.8C274.6,30.7,272.6,24.9,268.5,20.2z"/>
	<path class="st4" d="M249,50.6c-3.1-0.8-5.4-3.2-6.2-6.3c-0.2-0.9-0.3-1.8-0.3-2.9v-6.1c0-0.8,0.1-1.7,0.3-2.5
		c0.3-1.3,0.8-2.4,1.5-3.4c-1-2.5-2.1-4.9-3.3-7.3l0,0v-0.2c-1.1-2.1-2.3-4.1-3.5-6h-9.2c0.2,4.2,0.4,9.2,0.4,15v47.9h13.9V56.5h0.2
		c1.2,1.8,3.3,3.3,5.9,4.2C249,57.4,249.1,54,249,50.6z"/>
	<path class="st4" d="M28.8,3.7v12.2h10v10.2h-10v16.3c0,5.4,1.4,7.9,5.5,7.9c1.9,0,2.8-0.1,4.1-0.4l0.1,10.5
		c-1.7,0.6-5.1,1.2-9,1.2c-4.5,0-8.2-1.6-10.5-3.8c-2.6-2.7-3.8-6.9-3.8-13.3V26.1H9.3V15.8h5.9V7.4L28.8,3.7z"/>
	<path class="st4" d="M54.3,42.5c0.5,5.9,6.1,8.6,12.6,8.6c4.8,0,8.6-0.6,12.3-1.9l1.8,9.4c-4.6,1.9-10.1,2.8-16.2,2.8
		c-15.2,0-23.9-8.8-23.9-22.9c0-11.3,7.1-23.9,22.6-23.9C78.1,14.7,83.6,26,83.6,37c0,2.4-0.3,4.5-0.5,5.6L54.3,42.5z M70.7,33
		c0-3.3-1.5-9-7.8-9c-5.9,0-8.3,5.4-8.7,9H70.7z"/>
	<path class="st4" d="M122.7,59.4c-2.5,1.2-7.1,2.1-12.4,2.1c-14.4,0-23.7-8.9-23.7-22.9c0-13.1,9-23.8,25.6-23.8
		c3.7,0,7.7,0.6,10.6,1.7l-2.2,10.3c-1.6-0.7-4.1-1.4-7.8-1.4c-7.3,0-12.1,5.2-12,12.5c0,8.2,5.5,12.6,12.2,12.6
		c3.3,0,5.9-0.6,8-1.5L122.7,59.4z"/>
	<path class="st4" d="M127.6,30.1c0-5.6-0.2-10.2-0.4-14.3h12.1L140,22h0.3c1.8-2.9,6.3-7.2,13.8-7.2c9.1,0,16,6.1,16,19.3v26.4
		h-13.9V35.8c0-5.8-2-9.7-7-9.7c-3.8,0-6.1,2.7-7.1,5.2c-0.4,0.9-0.5,2.2-0.5,3.5v25.8h-13.9V30.1H127.6z"/>
	<path class="st4" d="M199,61.5c-13.1,0-23.1-8.6-23.1-23s9.5-23.7,23.9-23.7c13.6,0,22.8,9.4,22.8,22.9C222.6,54,211,61.5,199,61.5
		L199,61.5z M199.3,51.6c5.5,0,8.9-5.4,8.9-13.4c0-6.6-2.6-13.3-8.9-13.3c-6.6,0-9.1,6.8-9.1,13.4C190.2,45.8,193.4,51.6,199.3,51.6
		L199.3,51.6z"/>
	<path class="st7" d="M280.4,30.5c0-6.6-0.1-10.9-0.4-14.7h12l0.5,8.3h0.4c2.3-6.6,7.7-9.3,12.1-9.3c1.3,0,1.9,0.1,2.9,0.3v13.1
		c-1.2-0.2-2.3-0.4-3.8-0.4c-5.1,0-8.6,2.6-9.5,7c-0.2,0.9-0.3,1.9-0.3,3.1v22.6h-13.9L280.4,30.5z"/>
	<path class="st7" d="M332.3,61.5c-13.1,0-23.1-8.6-23.1-23s9.5-23.7,23.9-23.7c13.6,0,22.8,9.4,22.8,22.9
		C355.9,54,344.2,61.5,332.3,61.5L332.3,61.5z M332.5,51.6c5.5,0,8.9-5.4,8.9-13.4c0-6.6-2.6-13.3-8.9-13.3c-6.6,0-9.1,6.8-9.1,13.4
		C323.4,45.8,326.6,51.6,332.5,51.6L332.5,51.6z"/>
	<path class="st7" d="M404.3,54c0,8.6-1.7,15.6-6.9,20.1c-4.8,4.2-11.5,5.5-18.1,5.5c-5.9,0-12.1-1.2-16.1-3.4l2.7-10.6
		c2.8,1.6,7.7,3.4,13,3.4c6.6,0,11.6-3.5,11.6-11.8v-2.8h-0.2c-2.6,3.7-6.9,5.8-12.1,5.8c-11.1,0-18.9-9-18.9-21.8
		c0-14.4,9.2-23.6,20.3-23.6c6.1,0,10,2.7,12.2,6.3h0.2l0.5-5.3h12.1c-0.2,2.9-0.4,6.7-0.4,13.3L404.3,54L404.3,54z M390.4,34
		c0-0.8-0.1-1.7-0.3-2.6c-1-3.7-3.7-6.1-7.5-6.1c-5.1,0-9.1,4.6-9.1,12.7c0,6.7,3.3,11.9,9,11.9c3.7,0,6.5-2.4,7.4-5.6
		c0.4-1.1,0.5-2.6,0.5-3.7V34z"/>
	<path class="st7" d="M412.8,30.5c0-6.6-0.1-10.9-0.4-14.7h11.9l0.5,8.3h0.4c2.3-6.6,7.7-9.3,12.1-9.3c1.3,0,1.9,0.1,2.9,0.3v13.1
		c-1.2-0.2-2.3-0.4-3.8-0.4c-5.1,0-8.6,2.6-9.5,7c-0.2,0.9-0.3,1.9-0.3,3.1v22.6h-13.9L412.8,30.5z"/>
	<path class="st7" d="M454.7,42.5c0.5,5.9,6.1,8.6,12.6,8.6c4.8,0,8.6-0.6,12.3-1.9l1.8,9.4c-4.6,1.9-10.1,2.8-16.2,2.8
		c-15.2,0-23.9-8.8-23.9-22.9c0-11.3,7.1-23.9,22.6-23.9C478.5,14.7,484,26,484,37c0,2.4-0.3,4.5-0.5,5.6L454.7,42.5z M471.1,33
		c0-3.3-1.5-9-7.8-9c-5.9,0-8.3,5.4-8.7,9H471.1z"/>
	<path class="st7" d="M489.5,48.5c2.6,1.6,7.9,3.3,12,3.3c4.2,0,5.9-1.4,5.9-3.7c0-2.4-1.4-3.5-6.5-5.2c-9.3-3-12.9-8.1-12.8-13.3
		c0-8.4,7.1-14.7,18.2-14.7c5.2,0,9.8,1.3,12.5,2.7l-2.4,9.5c-2-1-5.9-2.5-9.7-2.5c-3.4,0-5.3,1.4-5.3,3.6s1.7,3.3,7.2,5.2
		c8.5,2.8,12,7.2,12.1,13.7c0,8.4-6.5,14.5-19.3,14.5c-5.9,0-11.1-1.4-14.4-3.2L489.5,48.5z"/>
	<path class="st7" d="M526.4,48.5c2.6,1.6,7.9,3.3,12,3.3c4.2,0,5.9-1.4,5.9-3.7c0-2.4-1.4-3.5-6.5-5.2c-9.3-3-12.9-8.1-12.8-13.3
		c0-8.4,7.1-14.7,18.2-14.7c5.2,0,9.8,1.3,12.5,2.7l-2.4,9.5c-2-1-5.9-2.5-9.7-2.5c-3.4,0-5.3,1.4-5.3,3.6s1.7,3.3,7.2,5.2
		c8.5,2.8,12,7.2,12.1,13.7c0,8.4-6.5,14.5-19.3,14.5c-5.8,0-11.1-1.4-14.4-3.2L526.4,48.5z"/>
	<g class="st1">
		<text transform="matrix(1 0 0 1 14.2622 90.706)" class="st3 st5 st10">INFORMATICA &amp; TELEFONIA</text>
	</g>
	<g class="st1">
		<path class="st9" d="M573,23.9c0,3.7-2.9,6.6-6.6,6.6c-3.7,0-6.7-2.9-6.7-6.6c0-3.6,3-6.5,6.7-6.5C570.1,17.4,573,20.3,573,23.9z
			 M561.3,23.9c0,2.9,2.1,5.2,5.1,5.2c2.8,0,4.9-2.3,4.9-5.1c0-2.9-2.1-5.2-5-5.2C563.5,18.7,561.3,21,561.3,23.9z M565.3,27.3h-1.5
			v-6.5c0.6-0.1,1.4-0.2,2.5-0.2c1.2,0,1.8,0.2,2.3,0.5c0.4,0.3,0.6,0.8,0.6,1.4c0,0.7-0.6,1.3-1.3,1.5v0.1c0.6,0.2,1,0.7,1.2,1.6
			c0.2,1,0.3,1.4,0.5,1.6H568c-0.2-0.2-0.3-0.8-0.5-1.6c-0.1-0.7-0.5-1-1.3-1h-0.7v2.6H565.3z M565.4,23.6h0.7
			c0.8,0,1.5-0.3,1.5-0.9s-0.4-1-1.4-1c-0.4,0-0.7,0-0.8,0.1V23.6z"/>
	</g>
</g>
<g id="Web__x26__Idee_copia" class="st0">
	<path class="st11" d="M268.5,20.2c-4.1-4.7-9.1-7-15.1-7c-1.6,0-3.1,0.2-4.5,0.6c7.6,7.7,12.4,18.2,12.4,29.9
		c0,6.7-1.7,13.1-4.4,18.7c4.4-0.8,8.3-3.1,11.6-7c4.2-4.9,6.3-10.8,6.3-17.8C274.6,30.7,272.6,24.9,268.5,20.2z"/>
	<g class="st1">
		<path class="st12" d="M249,50.6c-3.1-0.8-5.4-3.2-6.2-6.3c-0.2-0.9-0.3-1.8-0.3-2.9v-6.1c0-0.8,0.1-1.7,0.3-2.5
			c0.3-1.3,0.8-2.4,1.5-3.4c-1-2.5-2.1-4.9-3.3-7.3l0,0v-0.2c-1.1-2.1-2.3-4.1-3.5-6h-9.2c0.2,4.2,0.4,9.2,0.4,15v47.9h13.9V56.5
			h0.2c1.2,1.8,3.3,3.3,5.9,4.2C249,57.4,249.1,54,249,50.6z"/>
	</g>
	<path class="st13" d="M28.8,3.7v12.2h10v10.2h-10v16.3c0,5.4,1.4,7.9,5.5,7.9c1.9,0,2.8-0.1,4.1-0.4l0.1,10.5
		c-1.7,0.6-5.1,1.2-9,1.2c-4.5,0-8.2-1.6-10.5-3.8c-2.6-2.7-3.8-6.9-3.8-13.3V26.1H9.3V15.8h5.9V7.4L28.8,3.7z"/>
	<path class="st13" d="M54.3,42.5c0.5,5.9,6.1,8.6,12.6,8.6c4.8,0,8.6-0.6,12.3-1.9l1.8,9.4c-4.6,1.9-10.1,2.8-16.2,2.8
		c-15.2,0-23.9-8.8-23.9-22.9c0-11.3,7.1-23.9,22.6-23.9C78.1,14.7,83.6,26,83.6,37c0,2.4-0.3,4.5-0.5,5.6L54.3,42.5z M70.7,33
		c0-3.3-1.5-9-7.8-9c-5.9,0-8.3,5.4-8.7,9H70.7z"/>
	<path class="st13" d="M122.7,59.4c-2.5,1.2-7.1,2.1-12.4,2.1c-14.4,0-23.7-8.9-23.7-22.9c0-13.1,9-23.8,25.6-23.8
		c3.7,0,7.7,0.6,10.6,1.7l-2.2,10.3c-1.6-0.7-4.1-1.4-7.8-1.4c-7.3,0-12.1,5.2-12,12.5c0,8.2,5.5,12.6,12.2,12.6
		c3.3,0,5.9-0.5,8-1.5L122.7,59.4z"/>
	<path class="st13" d="M127.6,30.1c0-5.6-0.2-10.2-0.4-14.3h12.1L140,22h0.3c1.8-2.9,6.3-7.2,13.8-7.2c9.1,0,16,6.1,16,19.3v26.4
		h-13.9V35.8c0-5.8-2-9.7-7-9.7c-3.8,0-6.1,2.7-7.1,5.2c-0.4,0.9-0.5,2.2-0.5,3.5v25.8h-13.9V30.1H127.6z"/>
	<path class="st13" d="M199,61.5c-13.1,0-23.1-8.6-23.1-23s9.5-23.7,23.9-23.7c13.6,0,22.8,9.4,22.8,22.9
		C222.6,54,211,61.5,199,61.5L199,61.5z M199.3,51.6c5.5,0,8.9-5.4,8.9-13.4c0-6.6-2.6-13.3-8.9-13.3c-6.6,0-9.1,6.8-9.1,13.4
		C190.2,45.8,193.4,51.6,199.3,51.6L199.3,51.6z"/>
	<path class="st11" d="M280.4,30.5c0-6.6-0.1-10.9-0.4-14.7h12l0.5,8.3h0.4c2.3-6.6,7.7-9.3,12.1-9.3c1.3,0,1.9,0.1,2.9,0.3v13.1
		c-1.2-0.2-2.3-0.4-3.8-0.4c-5.1,0-8.6,2.7-9.5,7c-0.2,0.9-0.3,1.9-0.3,3.1v22.6h-13.9L280.4,30.5z"/>
	<path class="st11" d="M332.3,61.5c-13.1,0-23.1-8.6-23.1-23s9.5-23.7,23.9-23.7c13.6,0,22.8,9.4,22.8,22.9
		C355.9,54,344.2,61.5,332.3,61.5L332.3,61.5z M332.5,51.6c5.5,0,8.9-5.4,8.9-13.4c0-6.6-2.6-13.3-8.9-13.3c-6.6,0-9.1,6.8-9.1,13.4
		C323.4,45.8,326.6,51.6,332.5,51.6L332.5,51.6z"/>
	<path class="st11" d="M404.3,54c0,8.6-1.7,15.6-6.9,20.1c-4.8,4.2-11.5,5.5-18.1,5.5c-5.9,0-12.1-1.2-16.1-3.4l2.7-10.6
		c2.8,1.6,7.7,3.4,13,3.4c6.6,0,11.6-3.5,11.6-11.8v-2.8h-0.2c-2.7,3.7-6.9,5.8-12.1,5.8c-11.1,0-18.9-9-18.9-21.8
		c0-14.4,9.2-23.6,20.3-23.6c6.1,0,10,2.7,12.2,6.3h0.2l0.5-5.3h12.1c-0.2,2.9-0.4,6.7-0.4,13.3L404.3,54L404.3,54z M390.4,34
		c0-0.8-0.1-1.7-0.3-2.6c-1-3.7-3.7-6.1-7.5-6.1c-5.1,0-9.1,4.6-9.1,12.7c0,6.7,3.3,11.9,9,11.9c3.7,0,6.5-2.4,7.4-5.6
		c0.4-1.1,0.5-2.6,0.5-3.7V34z"/>
	<path class="st11" d="M412.8,30.5c0-6.6-0.1-10.9-0.4-14.7h11.9l0.5,8.3h0.4c2.3-6.6,7.7-9.3,12.1-9.3c1.3,0,1.9,0.1,2.9,0.3v13.1
		c-1.2-0.2-2.3-0.4-3.8-0.4c-5.1,0-8.6,2.7-9.5,7c-0.2,0.9-0.3,1.9-0.3,3.1v22.6h-13.9L412.8,30.5z"/>
	<path class="st11" d="M454.7,42.5c0.5,5.9,6.1,8.6,12.6,8.6c4.8,0,8.6-0.6,12.3-1.9l1.8,9.4c-4.6,1.9-10.1,2.8-16.2,2.8
		c-15.2,0-23.9-8.8-23.9-22.9c0-11.3,7.1-23.9,22.6-23.9C478.5,14.7,484,26,484,37c0,2.4-0.3,4.5-0.5,5.6L454.7,42.5z M471.1,33
		c0-3.3-1.5-9-7.8-9c-5.9,0-8.3,5.4-8.7,9H471.1z"/>
	<path class="st11" d="M489.5,48.5c2.6,1.6,7.9,3.3,12,3.3c4.2,0,5.9-1.4,5.9-3.7c0-2.4-1.4-3.5-6.5-5.2c-9.3-3-12.9-8.1-12.8-13.3
		c0-8.4,7.1-14.7,18.2-14.7c5.2,0,9.8,1.3,12.5,2.7l-2.4,9.5c-2-1-5.9-2.5-9.7-2.5c-3.4,0-5.3,1.4-5.3,3.6s1.7,3.3,7.2,5.2
		c8.5,2.8,12,7.2,12.1,13.7c0,8.4-6.5,14.5-19.3,14.5c-5.9,0-11.1-1.4-14.4-3.2L489.5,48.5z"/>
	<path class="st11" d="M526.4,48.5c2.6,1.6,7.9,3.3,12,3.3c4.2,0,5.9-1.4,5.9-3.7c0-2.4-1.4-3.5-6.5-5.2c-9.3-3-12.9-8.1-12.8-13.3
		c0-8.4,7.1-14.7,18.2-14.7c5.2,0,9.8,1.3,12.5,2.7l-2.4,9.5c-2-1-5.9-2.5-9.7-2.5c-3.4,0-5.3,1.4-5.3,3.6s1.7,3.3,7.2,5.2
		c8.5,2.8,12,7.2,12.1,13.7c0,8.4-6.5,14.5-19.3,14.5c-5.9,0-11.1-1.4-14.4-3.2L526.4,48.5z"/>
	<g class="st1">
		<path class="st12" d="M16.1,79.2h-3.7v-2h9.8v2h-3.8v11H16L16.1,79.2L16.1,79.2z"/>
		<path class="st12" d="M31.1,84.5h-4.9v3.8h5.5v2h-7.9v-13h7.6v2h-5.2v3.4h4.9V84.5z"/>
		<path class="st12" d="M33.7,77.2h2.4v11h5.4v2h-7.7v-13H33.7z"/>
		<path class="st12" d="M50.6,84.5h-4.9v3.8h5.5v2h-7.9v-13h7.6v2h-5.2v3.4h4.9C50.6,82.7,50.6,84.5,50.6,84.5z"/>
		<path class="st12" d="M53.2,77.2h7.5v2h-5.2v3.6h4.8v1.9h-4.8v5.6h-2.4V77.2H53.2z"/>
		<path class="st12" d="M74.7,83.6c0,4.4-2.7,6.9-6.2,6.9c-3.7,0-6-2.8-6-6.6c0-4,2.5-6.8,6.2-6.8C72.4,77,74.7,79.9,74.7,83.6z
			 M64.9,83.8c0,2.7,1.3,4.8,3.6,4.8c2.3,0,3.6-2.1,3.6-4.9c0-2.5-1.2-4.8-3.6-4.8C66.2,78.9,64.9,81.1,64.9,83.8z"/>
		<path class="st12" d="M76.7,90.3v-13h2.7l3.4,5.6c0.9,1.5,1.6,3,2.2,4.4l0,0c-0.2-1.7-0.2-3.4-0.2-5.4v-4.5H87v13h-2.5l-3.4-5.7
			c-0.8-1.4-1.7-3-2.3-4.5h-0.1c0.1,1.7,0.1,3.4,0.1,5.6v4.7h-2.1V90.3z"/>
		<path class="st12" d="M92.2,77.2v13h-2.4v-13H92.2z"/>
		<path class="st12" d="M97.5,86.6l-1.1,3.7h-2.5l4.2-13h3l4.2,13h-2.6l-1.2-3.7H97.5z M101.2,84.8l-1-3.2c-0.3-0.8-0.5-1.7-0.7-2.4
			l0,0c-0.2,0.8-0.4,1.7-0.6,2.4l-1,3.2H101.2z"/>
	</g>
	<g class="st1">
		<path class="st14" d="M573,23.9c0,3.7-2.9,6.6-6.6,6.6c-3.7,0-6.7-2.9-6.7-6.6c0-3.6,3-6.5,6.7-6.5C570.1,17.4,573,20.3,573,23.9z
			 M561.3,23.9c0,2.9,2.1,5.2,5.1,5.2c2.8,0,4.9-2.3,4.9-5.1c0-2.9-2.1-5.2-5-5.2C563.5,18.7,561.3,21,561.3,23.9z M565.3,27.3h-1.5
			v-6.5c0.6-0.1,1.4-0.2,2.5-0.2c1.2,0,1.8,0.2,2.3,0.5c0.4,0.3,0.6,0.8,0.6,1.4c0,0.7-0.6,1.3-1.3,1.5v0.1c0.6,0.2,1,0.7,1.2,1.6
			c0.2,1,0.3,1.4,0.5,1.6H568c-0.2-0.2-0.3-0.8-0.5-1.6c-0.1-0.7-0.5-1-1.3-1h-0.7v2.6H565.3z M565.4,23.6h0.7
			c0.8,0,1.5-0.3,1.5-0.9s-0.4-1-1.4-1c-0.4,0-0.7,0-0.8,0.1V23.6z"/>
	</g>
</g>
<g id="testi_originali" class="st0">
	<text transform="matrix(1 0 0 1 12.2563 90.2554)" class="st13 st5 st15">TELEFONIA</text>
</g>
<g id="Monocromatico" class="st0">
	<g class="st1">
		<g>
			<path d="M268.5,20.2c-4.1-4.7-9.1-7-15.1-7c-1.6,0-3.1,0.2-4.5,0.6c7.6,7.7,12.4,18.2,12.4,29.9c0,6.7-1.7,13.1-4.4,18.7
				c4.4-0.8,8.3-3.1,11.6-7c4.2-4.9,6.3-10.8,6.3-17.8C274.6,30.7,272.6,24.9,268.5,20.2z"/>
			<g>
				<path d="M249,50.6c-3.1-0.8-5.4-3.2-6.2-6.3c-0.2-0.9-0.3-1.8-0.3-2.9v-6.1c0-0.8,0.1-1.7,0.3-2.5c0.3-1.3,0.8-2.4,1.5-3.4
					c-1-2.5-2.1-4.9-3.3-7.3l0,0v-0.2c-1.1-2.1-2.3-4.1-3.5-6h-9.2c0.2,4.2,0.4,9.2,0.4,15v47.9h13.9V56.5h0.2
					c1.2,1.8,3.3,3.3,5.9,4.2C249,57.4,249.1,54,249,50.6z"/>
			</g>
		</g>
		<g>
			<path d="M28.8,3.7v12.2h10v10.2h-10v16.3c0,5.4,1.4,7.9,5.5,7.9c1.9,0,2.8-0.1,4.1-0.4l0.1,10.5c-1.7,0.6-5.1,1.2-9,1.2
				c-4.5,0-8.2-1.6-10.5-3.8c-2.6-2.7-3.8-6.9-3.8-13.3V26.1H9.3V15.8h5.9V7.4L28.8,3.7z"/>
			<path d="M54.3,42.5c0.5,5.9,6.1,8.6,12.6,8.6c4.8,0,8.6-0.6,12.3-1.9l1.8,9.4c-4.6,1.9-10.1,2.8-16.2,2.8
				c-15.2,0-23.9-8.8-23.9-22.9c0-11.3,7.1-23.9,22.6-23.9C78.1,14.7,83.6,26,83.6,37c0,2.4-0.3,4.5-0.5,5.6L54.3,42.5z M70.7,33
				c0-3.3-1.5-9-7.8-9c-5.9,0-8.3,5.4-8.7,9H70.7z"/>
			<path d="M122.7,59.4c-2.5,1.2-7.1,2.1-12.4,2.1c-14.4,0-23.7-8.9-23.7-22.9c0-13.1,9-23.8,25.6-23.8c3.7,0,7.7,0.6,10.6,1.7
				l-2.2,10.3c-1.6-0.7-4.1-1.4-7.8-1.4c-7.3,0-12.1,5.2-12,12.5c0,8.2,5.5,12.6,12.2,12.6c3.3,0,5.9-0.5,8-1.5L122.7,59.4z"/>
			<path d="M127.6,30.1c0-5.6-0.2-10.2-0.4-14.3h12.1L140,22h0.3c1.8-2.9,6.3-7.2,13.8-7.2c9.1,0,16,6.1,16,19.3v26.4h-13.9V35.8
				c0-5.8-2-9.7-7-9.7c-3.8,0-6.1,2.7-7.1,5.2c-0.4,0.9-0.5,2.2-0.5,3.5v25.8h-13.9V30.1H127.6z"/>
			<path d="M199,61.5c-13.1,0-23.1-8.6-23.1-23s9.5-23.7,23.9-23.7c13.6,0,22.8,9.4,22.8,22.9C222.6,54,211,61.5,199,61.5L199,61.5z
				 M199.3,51.6c5.5,0,8.9-5.4,8.9-13.4c0-6.6-2.6-13.3-8.9-13.3c-6.6,0-9.1,6.8-9.1,13.4C190.2,45.8,193.4,51.6,199.3,51.6
				L199.3,51.6z"/>
			<path d="M280.4,30.5c0-6.6-0.1-10.9-0.4-14.7h12l0.5,8.3h0.4c2.3-6.6,7.7-9.3,12.1-9.3c1.3,0,1.9,0.1,2.9,0.3v13.1
				c-1.2-0.2-2.3-0.4-3.8-0.4c-5.1,0-8.6,2.7-9.5,7c-0.2,0.9-0.3,1.9-0.3,3.1v22.6h-13.9L280.4,30.5z"/>
			<path d="M332.3,61.5c-13.1,0-23.1-8.6-23.1-23s9.5-23.7,23.9-23.7c13.6,0,22.8,9.4,22.8,22.9C355.9,54,344.2,61.5,332.3,61.5
				L332.3,61.5z M332.5,51.6c5.5,0,8.9-5.4,8.9-13.4c0-6.6-2.6-13.3-8.9-13.3c-6.6,0-9.1,6.8-9.1,13.4
				C323.4,45.8,326.6,51.6,332.5,51.6L332.5,51.6z"/>
			<path d="M404.3,54c0,8.6-1.7,15.6-6.9,20.1c-4.8,4.2-11.5,5.5-18.1,5.5c-5.9,0-12.1-1.2-16.1-3.4l2.7-10.6
				c2.8,1.6,7.7,3.4,13,3.4c6.6,0,11.6-3.5,11.6-11.8v-2.8h-0.2c-2.7,3.7-6.9,5.8-12.1,5.8c-11.1,0-18.9-9-18.9-21.8
				c0-14.4,9.2-23.6,20.3-23.6c6.1,0,10,2.7,12.2,6.3h0.2l0.5-5.3h12.1c-0.2,2.9-0.4,6.7-0.4,13.3L404.3,54L404.3,54z M390.4,34
				c0-0.8-0.1-1.7-0.3-2.6c-1-3.7-3.7-6.1-7.5-6.1c-5.1,0-9.1,4.6-9.1,12.7c0,6.7,3.3,11.9,9,11.9c3.7,0,6.5-2.4,7.4-5.6
				c0.4-1.1,0.5-2.6,0.5-3.7V34z"/>
			<path d="M412.8,30.5c0-6.6-0.1-10.9-0.4-14.7h11.9l0.5,8.3h0.4c2.3-6.6,7.7-9.3,12.1-9.3c1.3,0,1.9,0.1,2.9,0.3v13.1
				c-1.2-0.2-2.3-0.4-3.8-0.4c-5.1,0-8.6,2.7-9.5,7c-0.2,0.9-0.3,1.9-0.3,3.1v22.6h-13.9L412.8,30.5z"/>
			<path d="M454.7,42.5c0.5,5.9,6.1,8.6,12.6,8.6c4.8,0,8.6-0.6,12.3-1.9l1.8,9.4c-4.6,1.9-10.1,2.8-16.2,2.8
				c-15.2,0-23.9-8.8-23.9-22.9c0-11.3,7.1-23.9,22.6-23.9C478.5,14.7,484,26,484,37c0,2.4-0.3,4.5-0.5,5.6L454.7,42.5z M471.1,33
				c0-3.3-1.5-9-7.8-9c-5.9,0-8.3,5.4-8.7,9H471.1z"/>
			<path d="M489.5,48.5c2.6,1.6,7.9,3.3,12,3.3c4.2,0,5.9-1.4,5.9-3.7c0-2.4-1.4-3.5-6.5-5.2c-9.3-3-12.9-8.1-12.8-13.3
				c0-8.4,7.1-14.7,18.2-14.7c5.2,0,9.8,1.3,12.5,2.7l-2.4,9.5c-2-1-5.9-2.5-9.7-2.5c-3.4,0-5.3,1.4-5.3,3.6s1.7,3.3,7.2,5.2
				c8.5,2.8,12,7.2,12.1,13.7c0,8.4-6.5,14.5-19.3,14.5c-5.9,0-11.1-1.4-14.4-3.2L489.5,48.5z"/>
			<path d="M526.4,48.5c2.6,1.6,7.9,3.3,12,3.3c4.2,0,5.9-1.4,5.9-3.7c0-2.4-1.4-3.5-6.5-5.2c-9.3-3-12.9-8.1-12.8-13.3
				c0-8.4,7.1-14.7,18.2-14.7c5.2,0,9.8,1.3,12.5,2.7l-2.4,9.5c-2-1-5.9-2.5-9.7-2.5c-3.4,0-5.3,1.4-5.3,3.6s1.7,3.3,7.2,5.2
				c8.5,2.8,12,7.2,12.1,13.7c0,8.4-6.5,14.5-19.3,14.5c-5.9,0-11.1-1.4-14.4-3.2L526.4,48.5z"/>
		</g>
	</g>
	<g class="st1">
		<path d="M573,23.9c0,3.7-2.9,6.6-6.6,6.6c-3.7,0-6.7-2.9-6.7-6.6c0-3.6,3-6.5,6.7-6.5C570.1,17.4,573,20.3,573,23.9z M561.3,23.9
			c0,2.9,2.1,5.2,5.1,5.2c2.8,0,4.9-2.3,4.9-5.1c0-2.9-2.1-5.2-5-5.2C563.5,18.7,561.3,21,561.3,23.9z M565.3,27.3h-1.5v-6.5
			c0.6-0.1,1.4-0.2,2.5-0.2c1.2,0,1.8,0.2,2.3,0.5c0.4,0.3,0.6,0.8,0.6,1.4c0,0.7-0.6,1.3-1.3,1.5v0.1c0.6,0.2,1,0.7,1.2,1.6
			c0.2,1,0.3,1.4,0.5,1.6H568c-0.2-0.2-0.3-0.8-0.5-1.6c-0.1-0.7-0.5-1-1.3-1h-0.7v2.6H565.3z M565.4,23.6h0.7
			c0.8,0,1.5-0.3,1.5-0.9s-0.4-1-1.4-1c-0.4,0-0.7,0-0.8,0.1V23.6z"/>
	</g>
</g>
<g id="Web__x26__Idee">
	<g>
		<g>
			<path class="st16" d="M268.5,19.8c-4.1-4.7-9.1-7-15.1-7c-1.6,0-3.1,0.2-4.5,0.6c7.6,7.7,12.4,18.2,12.4,29.9
				c0,6.7-1.7,13.1-4.4,18.7c4.4-0.8,8.3-3.1,11.6-7c4.2-4.9,6.3-10.8,6.3-17.8C274.6,30.3,272.6,24.5,268.5,19.8z"/>
			<g>
				<path class="st3" d="M249,50.2c-3.1-0.8-5.4-3.2-6.2-6.3c-0.2-0.9-0.3-1.8-0.3-2.9v-6.1c0-0.8,0.1-1.7,0.3-2.5
					c0.3-1.3,0.8-2.4,1.5-3.4c-1-2.5-2.1-4.9-3.3-7.3l0,0v-0.2c-1.1-2.1-2.3-4.1-3.5-6h-9.2c0.2,4.2,0.4,9.2,0.4,15v47.9h13.9V56
					h0.2c1.2,1.8,3.3,3.3,5.9,4.2C249,56.9,249.1,53.6,249,50.2z"/>
			</g>
		</g>
		<g>
			<path class="st3" d="M28.8,3.2v12.2h10v10.2h-10v16.3c0,5.4,1.4,7.9,5.5,7.9c1.9,0,2.8-0.1,4.1-0.4l0.1,10.5
				c-1.7,0.6-5.1,1.2-9,1.2c-4.5,0-8.2-1.6-10.5-3.8c-2.6-2.7-3.8-6.9-3.8-13.3V25.6H9.3V15.4h5.9V7L28.8,3.2z"/>
			<path class="st3" d="M54.3,42.1c0.5,5.9,6.1,8.6,12.6,8.6c4.8,0,8.6-0.6,12.3-1.9l1.8,9.4C76.5,60.1,71,61,64.9,61
				C49.7,61,41,52.2,41,38.1c0-11.3,7.1-23.9,22.6-23.9c14.4,0,19.9,11.2,19.9,22.3c0,2.4-0.3,4.5-0.5,5.6H54.3z M70.7,32.6
				c0-3.3-1.5-9-7.8-9c-5.9,0-8.3,5.4-8.7,9H70.7z"/>
			<path class="st3" d="M122.7,59c-2.5,1.2-7.1,2.1-12.4,2.1c-14.4,0-23.7-8.9-23.7-22.9c0-13.1,9-23.8,25.6-23.8
				c3.7,0,7.7,0.6,10.6,1.7l-2.2,10.3c-1.6-0.7-4.1-1.4-7.8-1.4c-7.3,0-12.1,5.2-12,12.5c0,8.2,5.5,12.6,12.2,12.6
				c3.3,0,5.9-0.5,8-1.5L122.7,59z"/>
			<path class="st3" d="M127.6,29.7c0-5.6-0.2-10.2-0.4-14.3h12.1l0.6,6.2h0.3c1.8-2.9,6.3-7.2,13.8-7.2c9.1,0,16,6.1,16,19.3v26.4
				h-13.9V35.3c0-5.8-2-9.7-7-9.7c-3.8,0-6.1,2.7-7.1,5.2c-0.4,0.9-0.5,2.2-0.5,3.5v25.8h-13.9L127.6,29.7L127.6,29.7z"/>
			<path class="st3" d="M199,61.1c-13.1,0-23.1-8.6-23.1-23s9.5-23.7,23.9-23.7c13.6,0,22.8,9.4,22.8,22.9
				C222.6,53.6,211,61.1,199,61.1L199,61.1z M199.3,51.1c5.5,0,8.9-5.4,8.9-13.4c0-6.6-2.6-13.3-8.9-13.3c-6.6,0-9.1,6.8-9.1,13.4
				C190.2,45.4,193.4,51.1,199.3,51.1L199.3,51.1z"/>
			<path class="st16" d="M280.4,30.1c0-6.6-0.1-10.9-0.4-14.7h12l0.5,8.3h0.4c2.3-6.6,7.7-9.3,12.1-9.3c1.3,0,1.9,0.1,2.9,0.3v13.1
				c-1.2-0.2-2.3-0.4-3.8-0.4c-5.1,0-8.6,2.7-9.5,7c-0.2,0.9-0.3,1.9-0.3,3.1v22.6h-13.9L280.4,30.1z"/>
			<path class="st16" d="M332.3,61.1c-13.1,0-23.1-8.6-23.1-23s9.5-23.7,23.9-23.7c13.6,0,22.8,9.4,22.8,22.9
				C355.9,53.6,344.2,61.1,332.3,61.1L332.3,61.1z M332.5,51.1c5.5,0,8.9-5.4,8.9-13.4c0-6.6-2.6-13.3-8.9-13.3
				c-6.6,0-9.1,6.8-9.1,13.4C323.4,45.4,326.6,51.1,332.5,51.1L332.5,51.1z"/>
			<path class="st16" d="M404.3,53.6c0,8.6-1.7,15.6-6.9,20.1c-4.8,4.2-11.5,5.5-18.1,5.5c-5.9,0-12.1-1.2-16.1-3.4l2.7-10.6
				c2.8,1.6,7.7,3.4,13,3.4c6.6,0,11.6-3.5,11.6-11.8V54h-0.2c-2.7,3.7-6.9,5.8-12.1,5.8c-11.1,0-18.9-9-18.9-21.8
				c0-14.4,9.2-23.6,20.3-23.6c6.1,0,10,2.7,12.2,6.3h0.2l0.5-5.3h12.1c-0.2,2.9-0.4,6.7-0.4,13.3L404.3,53.6L404.3,53.6z
				 M390.4,33.6c0-0.8-0.1-1.7-0.3-2.6c-1-3.7-3.7-6.1-7.5-6.1c-5.1,0-9.1,4.6-9.1,12.7c0,6.7,3.3,11.9,9,11.9
				c3.7,0,6.5-2.4,7.4-5.6c0.4-1.1,0.5-2.6,0.5-3.7V33.6z"/>
			<path class="st16" d="M412.8,30.1c0-6.6-0.1-10.9-0.4-14.7h11.9l0.5,8.3h0.4c2.3-6.6,7.7-9.3,12.1-9.3c1.3,0,1.9,0.1,2.9,0.3
				v13.1c-1.2-0.2-2.3-0.4-3.8-0.4c-5.1,0-8.6,2.7-9.5,7c-0.2,0.9-0.3,1.9-0.3,3.1v22.6h-13.9L412.8,30.1z"/>
			<path class="st16" d="M454.7,42.1c0.5,5.9,6.1,8.6,12.6,8.6c4.8,0,8.6-0.6,12.3-1.9l1.8,9.4c-4.6,1.9-10.1,2.8-16.2,2.8
				c-15.2,0-23.9-8.8-23.9-22.9c0-11.3,7.1-23.9,22.6-23.9c14.4,0,19.9,11.2,19.9,22.3c0,2.4-0.3,4.5-0.5,5.6H454.7z M471.1,32.6
				c0-3.3-1.5-9-7.8-9c-5.9,0-8.3,5.4-8.7,9H471.1z"/>
			<path class="st16" d="M489.5,48c2.6,1.6,7.9,3.3,12,3.3c4.2,0,5.9-1.4,5.9-3.7c0-2.4-1.4-3.5-6.5-5.2c-9.3-3-12.9-8.1-12.8-13.3
				c0-8.4,7.1-14.7,18.2-14.7c5.2,0,9.8,1.3,12.5,2.7l-2.4,9.5c-2-1-5.9-2.5-9.7-2.5c-3.4,0-5.3,1.4-5.3,3.6s1.7,3.3,7.2,5.2
				c8.5,2.8,12,7.2,12.1,13.7c0,8.4-6.5,14.5-19.3,14.5c-5.9,0-11.1-1.4-14.4-3.2L489.5,48z"/>
			<path class="st16" d="M526.4,48c2.6,1.6,7.9,3.3,12,3.3c4.2,0,5.9-1.4,5.9-3.7c0-2.4-1.4-3.5-6.5-5.2c-9.3-3-12.9-8.1-12.8-13.3
				c0-8.4,7.1-14.7,18.2-14.7c5.2,0,9.8,1.3,12.5,2.7l-2.4,9.5c-2-1-5.9-2.5-9.7-2.5c-3.4,0-5.3,1.4-5.3,3.6s1.7,3.3,7.2,5.2
				c8.5,2.8,12,7.2,12.1,13.7c0,8.4-6.5,14.5-19.3,14.5c-5.9,0-11.1-1.4-14.4-3.2L526.4,48z"/>
		</g>
	</g>
	<g>
		<path class="st16" d="M573,23.9c0,3.7-2.9,6.6-6.6,6.6c-3.7,0-6.7-2.9-6.7-6.6c0-3.6,3-6.5,6.7-6.5C570.1,17.4,573,20.3,573,23.9z
			 M561.3,23.9c0,2.9,2.1,5.2,5.1,5.2c2.8,0,4.9-2.3,4.9-5.1c0-2.9-2.1-5.2-5-5.2C563.5,18.7,561.3,21,561.3,23.9z M565.3,27.3h-1.5
			v-6.5c0.6-0.1,1.4-0.2,2.5-0.2c1.2,0,1.8,0.2,2.3,0.5c0.4,0.3,0.6,0.8,0.6,1.4c0,0.7-0.6,1.3-1.3,1.5v0.1c0.6,0.2,1,0.7,1.2,1.6
			c0.2,1,0.3,1.4,0.5,1.6H568c-0.2-0.2-0.3-0.8-0.5-1.6c-0.1-0.7-0.5-1-1.3-1h-0.7v2.6H565.3z M565.4,23.6h0.7
			c0.8,0,1.5-0.3,1.5-0.9s-0.4-1-1.4-1c-0.4,0-0.7,0-0.8,0.1V23.6z"/>
	</g>
	<g>
		<path class="st3" d="M12.2,88L9.3,76.2h2.3l1.1,5.4c0.3,1.4,0.6,2.9,0.8,4.1l0,0c0.2-1.2,0.5-2.6,0.9-4.1l1.3-5.4H18l1.2,5.4
			c0.3,1.4,0.5,2.7,0.7,4l0,0c0.2-1.3,0.5-2.6,0.8-4.1l1.2-5.4h2.2L20.9,88h-2.3l-1.2-5.6c-0.3-1.4-0.5-2.5-0.6-3.8l0,0
			c-0.2,1.3-0.4,2.4-0.8,3.8L14.6,88H12.2z"/>
		<path class="st3" d="M32.1,82.8h-4.5v3.5h5V88h-7.1V76.2h6.9V78h-4.7v3h4.5v1.8H32.1z"/>
		<path class="st3" d="M34.4,76.3c0.7-0.1,1.9-0.2,3.1-0.2c1.6,0,2.6,0.2,3.4,0.8c0.7,0.4,1.2,1.2,1.2,2.2c0,1.1-0.7,2.1-2,2.6l0,0
			c1.2,0.3,2.4,1.3,2.4,2.9c0,1.1-0.5,1.9-1.1,2.4c-0.8,0.7-2.2,1.1-4.4,1.1c-1.2,0-2.1-0.1-2.6-0.2V76.3z M36.5,81h1.1
			c1.5,0,2.3-0.7,2.3-1.7c0-1.1-0.8-1.6-2.2-1.6c-0.6,0-1,0-1.2,0.1C36.5,77.8,36.5,81,36.5,81z M36.5,86.4c0.3,0,0.6,0.1,1.1,0.1
			c1.4,0,2.6-0.5,2.6-2c0-1.4-1.2-1.9-2.7-1.9h-1.1L36.5,86.4L36.5,86.4z"/>
		<path class="st3" d="M54.6,82.8h-4.5v3.5h5V88H48V76.2h6.9V78h-4.7v3h4.5v1.8H54.6z"/>
		<path class="st3" d="M62.6,76.2V88h-2.2V76.2H62.6z"/>
		<path class="st3" d="M65,76.3c0.9-0.2,2.2-0.2,3.4-0.2c2.2,0,3.7,0.5,4.8,1.4s1.8,2.3,1.8,4.4s-0.7,3.7-1.8,4.7
			c-1.2,1.1-3.1,1.6-5.4,1.6c-1.3,0-2.2-0.1-2.9-0.2L65,76.3L65,76.3z M67.2,86.4c0.3,0.1,0.8,0.1,1.2,0.1c2.8,0,4.5-1.5,4.5-4.5
			c0-2.6-1.5-4.1-4.2-4.1c-0.7,0-1.2,0.1-1.5,0.1V86.4z"/>
		<path class="st3" d="M83.5,82.8H79v3.5h5V88h-7.1V76.2h6.9V78h-4.7v3h4.5L83.5,82.8L83.5,82.8z"/>
		<path class="st3" d="M92.5,82.8H88v3.5h5V88h-7.1V76.2h6.9V78h-4.7v3h4.5L92.5,82.8L92.5,82.8z"/>
	</g>
</g>
<g id="Livello_8" class="st0">
</g>
</svg>
