<?xml version="1.0" encoding="utf-8"?>
<!-- Generator: Adobe Illustrator 26.5.0, SVG Export Plug-In . SVG Version: 6.00 Build 0)  -->
<svg version="1.1" id="Livello_1" xmlns="http://www.w3.org/2000/svg" xmlns:xlink="http://www.w3.org/1999/xlink" x="0px" y="0px"
	 viewBox="0 0 100 100" style="enable-background:new 0 0 100 100;" xml:space="preserve">
<style type="text/css">
	.st0{fill:#1F1F20;}
</style>
<path class="st0" d="M84.6,15.5c-19.2-19.2-50.4-19.2-69.7,0c-19.2,19.2-19.2,50.4,0,69.7c9.6,9.6,22.1,14.4,34.7,14.4h0.3
	c12.6,0,25.1-4.9,34.7-14.4C94.1,75.6,99,63,99,50.5v-0.3C99,37.6,94.1,25,84.6,15.5z M42.2,42.7l-6.9,0l0,11.2
	c0,3.7,0.9,5.4,3.8,5.4c1.3,0,1.9-0.1,2.8-0.2l0.1,7.3c-1.3,0.5-3.5,0.9-6.2,0.9c-3.1,0-5.7-1.1-7.2-2.7c-1.8-1.8-2.6-4.8-2.6-9.1
	l0-12.6h-4.1v-7.1h4.1l0-5.8l9.4-2.6l0,8.4l6.9,0L42.2,42.7z M60.2,65.9c-1.8-0.6-3.2-1.6-4-2.8h-0.1l0,14.9h-9.4V45.8
	c0-3.9-0.1-7.3-0.2-10.1l6.2,0c0.8,1.3,1.6,2.7,2.4,4.1l0,0.1l0,0c0.8,1.6,1.5,3.2,2.2,4.9c-0.5,0.7-0.8,1.4-1,2.3
	c-0.1,0.5-0.2,1.1-0.2,1.7l0,4.1c0,0.7,0.1,1.4,0.2,2c0.5,2.1,2.1,3.8,4.1,4.3C60.5,61.4,60.4,63.6,60.2,65.9z M73.4,62.4
	c-2.2,2.6-4.8,4.2-7.8,4.7c1.9-3.8,3-8.1,3-12.6c0-7.9-3.2-15-8.3-20.1c1-0.3,2-0.4,3.1-0.4c4,0,7.4,1.6,10.2,4.7
	c2.8,3.1,4.1,7.1,4.1,11.8C77.6,55.1,76.2,59.1,73.4,62.4z"/>
</svg>
